<?xml version="1.0" encoding="UTF-8" standalone="no"?>
<!DOCTYPE svg PUBLIC "-//W3C//DTD SVG 1.1//EN"
 "http://www.w3.org/Graphics/SVG/1.1/DTD/svg11.dtd">
<!-- Generated by graphviz version 5.0.0 (20220707.1540)
 -->
<!-- Title: UmlClassDiagram Pages: 1 -->
<svg width="1078pt" height="609pt"
 viewBox="0.00 0.00 1078.31 609.40" xmlns="http://www.w3.org/2000/svg" xmlns:xlink="http://www.w3.org/1999/xlink">
<g id="graph0" class="graph" transform="scale(1 1) rotate(0) translate(4 605.4)">
<title>UmlClassDiagram</title>
<polygon fill="white" stroke="transparent" points="-4,4 -4,-605.4 1074.31,-605.4 1074.31,4 -4,4"/>
<!-- 0 -->
<g id="node1" class="node">
<title>0</title>
<polygon fill="#f2f2f2" stroke="black" points="0,-0.5 0,-142.1 726,-142.1 726,-0.5 0,-0.5"/>
<text text-anchor="middle" x="363" y="-125.5" font-family="Times,serif" font-size="14.00">UniswapV3Swap</text>
<text text-anchor="middle" x="363" y="-108.7" font-family="Times,serif" font-size="14.00">src/UniswapV3Swap.sol</text>
<polyline fill="none" stroke="black" points="0,-100.5 726,-100.5 "/>
<text text-anchor="start" x="8" y="-83.9" font-family="Times,serif" font-size="14.00">Public:</text>
<text text-anchor="start" x="8" y="-67.1" font-family="Times,serif" font-size="14.00"> &#160;&#160;router: ISwapRouter</text>
<polyline fill="none" stroke="black" points="0,-58.9 726,-58.9 "/>
<text text-anchor="start" x="8" y="-42.3" font-family="Times,serif" font-size="14.00">External:</text>
<text text-anchor="start" x="8" y="-25.5" font-family="Times,serif" font-size="14.00"> &#160;&#160;&#160;swapExactInputSingleHop(tokenIn: address, tokenOut: address, poolFee: uint24, amountIn: uint256): (amountOut: uint256)</text>
<text text-anchor="start" x="8" y="-8.7" font-family="Times,serif" font-size="14.00"> &#160;&#160;&#160;swapExactInputMultiHop(path: bytes, tokenIn: address, amountIn: uint256): (amountOut: uint256)</text>
</g>
<!-- 1 -->
<g id="node2" class="node">
<title>1</title>
<polygon fill="#f2f2f2" stroke="black" points="122.1,-212.7 122.1,-329.5 575.9,-329.5 575.9,-212.7 122.1,-212.7"/>
<text text-anchor="middle" x="349" y="-312.9" font-family="Times,serif" font-size="14.00">&lt;&lt;Interface&gt;&gt;</text>
<text text-anchor="middle" x="349" y="-296.1" font-family="Times,serif" font-size="14.00">ISwapRouter</text>
<text text-anchor="middle" x="349" y="-279.3" font-family="Times,serif" font-size="14.00">src/UniswapV3Swap.sol</text>
<polyline fill="none" stroke="black" points="122.1,-271.1 575.9,-271.1 "/>
<text text-anchor="start" x="130.1" y="-254.5" font-family="Times,serif" font-size="14.00">External:</text>
<text text-anchor="start" x="130.1" y="-237.7" font-family="Times,serif" font-size="14.00"> &#160;&#160;&#160;&#160;exactInputSingle(params: ExactInputSingleParams): (amountOut: uint256)</text>
<text text-anchor="start" x="130.1" y="-220.9" font-family="Times,serif" font-size="14.00"> &#160;&#160;&#160;&#160;exactInput(params: ExactInputParams): (amountOut: uint256)</text>
</g>
<!-- 0&#45;&gt;1 -->
<g id="edge1" class="edge">
<title>0&#45;&gt;1</title>
<path fill="none" stroke="black" d="M358.04,-142.32C356.66,-161.91 355.15,-183.15 353.78,-202.59"/>
<polygon fill="black" stroke="black" points="350.29,-202.36 353.07,-212.58 357.27,-202.85 350.29,-202.36"/>
</g>
<!-- 2 -->
<g id="node3" class="node">
<title>2</title>
<polygon fill="#f2f2f2" stroke="black" points="154.42,-400.1 154.42,-600.9 339.58,-600.9 339.58,-400.1 154.42,-400.1"/>
<text text-anchor="middle" x="247" y="-584.3" font-family="Times,serif" font-size="14.00">&lt;&lt;Struct&gt;&gt;</text>
<text text-anchor="middle" x="247" y="-567.5" font-family="Times,serif" font-size="14.00">ExactInputSingleParams</text>
<text text-anchor="middle" x="247" y="-550.7" font-family="Times,serif" font-size="14.00">src/UniswapV3Swap.sol</text>
<polyline fill="none" stroke="black" points="154.42,-542.5 339.58,-542.5 "/>
<text text-anchor="start" x="162.42" y="-525.9" font-family="Times,serif" font-size="14.00">tokenIn: address</text>
<text text-anchor="start" x="162.42" y="-509.1" font-family="Times,serif" font-size="14.00">tokenOut: address</text>
<text text-anchor="start" x="162.42" y="-492.3" font-family="Times,serif" font-size="14.00">fee: uint24</text>
<text text-anchor="start" x="162.42" y="-475.5" font-family="Times,serif" font-size="14.00">recipient: address</text>
<text text-anchor="start" x="162.42" y="-458.7" font-family="Times,serif" font-size="14.00">deadline: uint256</text>
<text text-anchor="start" x="162.42" y="-441.9" font-family="Times,serif" font-size="14.00">amountIn: uint256</text>
<text text-anchor="start" x="162.42" y="-425.1" font-family="Times,serif" font-size="14.00">amountOutMinimum: uint256</text>
<text text-anchor="start" x="162.42" y="-408.3" font-family="Times,serif" font-size="14.00">sqrtPriceLimitX96: uint160</text>
</g>
<!-- 0&#45;&gt;2 -->
<g id="edge3" class="edge">
<title>0&#45;&gt;2</title>
<path fill="none" stroke="black" stroke-dasharray="5,2" d="M146.37,-142.18C133.56,-152.67 122.17,-164.73 113,-178.6 67.64,-247.18 81.8,-287.53 113,-363.6 121,-383.1 133.29,-401.29 147.25,-417.63"/>
<polygon fill="black" stroke="black" points="144.97,-420.34 154.22,-425.5 150.21,-415.69 144.97,-420.34"/>
</g>
<!-- 3 -->
<g id="node4" class="node">
<title>3</title>
<polygon fill="#f2f2f2" stroke="black" points="357.42,-425.3 357.42,-575.7 542.58,-575.7 542.58,-425.3 357.42,-425.3"/>
<text text-anchor="middle" x="450" y="-559.1" font-family="Times,serif" font-size="14.00">&lt;&lt;Struct&gt;&gt;</text>
<text text-anchor="middle" x="450" y="-542.3" font-family="Times,serif" font-size="14.00">ExactInputParams</text>
<text text-anchor="middle" x="450" y="-525.5" font-family="Times,serif" font-size="14.00">src/UniswapV3Swap.sol</text>
<polyline fill="none" stroke="black" points="357.42,-517.3 542.58,-517.3 "/>
<text text-anchor="start" x="365.42" y="-500.7" font-family="Times,serif" font-size="14.00">path: bytes</text>
<text text-anchor="start" x="365.42" y="-483.9" font-family="Times,serif" font-size="14.00">recipient: address</text>
<text text-anchor="start" x="365.42" y="-467.1" font-family="Times,serif" font-size="14.00">deadline: uint256</text>
<text text-anchor="start" x="365.42" y="-450.3" font-family="Times,serif" font-size="14.00">amountIn: uint256</text>
<text text-anchor="start" x="365.42" y="-433.5" font-family="Times,serif" font-size="14.00">amountOutMinimum: uint256</text>
</g>
<!-- 0&#45;&gt;3 -->
<g id="edge4" class="edge">
<title>0&#45;&gt;3</title>
<path fill="none" stroke="black" stroke-dasharray="5,2" d="M552.95,-142.38C565.37,-152.86 576.35,-164.86 585,-178.6 628.82,-248.17 616.34,-287.58 585,-363.6 576.76,-383.6 563.99,-402.2 549.53,-418.84"/>
<polygon fill="black" stroke="black" points="546.86,-416.57 542.77,-426.34 552.06,-421.25 546.86,-416.57"/>
</g>
<!-- 4 -->
<g id="node5" class="node">
<title>4</title>
<polygon fill="#f2f2f2" stroke="black" points="631.69,-179.1 631.69,-363.1 1070.31,-363.1 1070.31,-179.1 631.69,-179.1"/>
<text text-anchor="middle" x="851" y="-346.5" font-family="Times,serif" font-size="14.00">&lt;&lt;Interface&gt;&gt;</text>
<text text-anchor="middle" x="851" y="-329.7" font-family="Times,serif" font-size="14.00">IERC20</text>
<text text-anchor="middle" x="851" y="-312.9" font-family="Times,serif" font-size="14.00">src/UniswapV3Swap.sol</text>
<polyline fill="none" stroke="black" points="631.69,-304.7 1070.31,-304.7 "/>
<text text-anchor="start" x="639.69" y="-288.1" font-family="Times,serif" font-size="14.00">External:</text>
<text text-anchor="start" x="639.69" y="-271.3" font-family="Times,serif" font-size="14.00"> &#160;&#160;&#160;&#160;totalSupply(): uint256</text>
<text text-anchor="start" x="639.69" y="-254.5" font-family="Times,serif" font-size="14.00"> &#160;&#160;&#160;&#160;balanceOf(account: address): uint256</text>
<text text-anchor="start" x="639.69" y="-237.7" font-family="Times,serif" font-size="14.00"> &#160;&#160;&#160;&#160;transfer(recipient: address, amount: uint256): bool</text>
<text text-anchor="start" x="639.69" y="-220.9" font-family="Times,serif" font-size="14.00"> &#160;&#160;&#160;&#160;allowance(owner: address, spender: address): uint256</text>
<text text-anchor="start" x="639.69" y="-204.1" font-family="Times,serif" font-size="14.00"> &#160;&#160;&#160;&#160;approve(spender: address, amount: uint256): bool</text>
<text text-anchor="start" x="639.69" y="-187.3" font-family="Times,serif" font-size="14.00"> &#160;&#160;&#160;&#160;transferFrom(sender: address, recipient: address, amount: uint256): bool</text>
</g>
<!-- 0&#45;&gt;4 -->
<g id="edge2" class="edge">
<title>0&#45;&gt;4</title>
<path fill="none" stroke="black" stroke-dasharray="5,2" d="M535.39,-142.18C563.49,-153.56 592.97,-165.51 622.16,-177.34"/>
<polygon fill="black" stroke="black" points="621.04,-180.67 631.63,-181.18 623.67,-174.18 621.04,-180.67"/>
</g>
<!-- 1&#45;&gt;2 -->
<g id="edge7" class="edge">
<title>1&#45;&gt;2</title>
<path fill="none" stroke="black" stroke-dasharray="5,2" d="M317.17,-329.78C308.27,-348.34 298.49,-369.57 289.11,-390.58"/>
<polygon fill="black" stroke="black" points="285.84,-389.32 284.98,-399.88 292.24,-392.16 285.84,-389.32"/>
</g>
<!-- 1&#45;&gt;3 -->
<g id="edge8" class="edge">
<title>1&#45;&gt;3</title>
<path fill="none" stroke="black" stroke-dasharray="5,2" d="M368.66,-329.78C379.46,-355.9 393.2,-387.28 406.34,-415.91"/>
<polygon fill="black" stroke="black" points="403.21,-417.49 410.58,-425.1 409.57,-414.56 403.21,-417.49"/>
</g>
<!-- 2&#45;&gt;1 -->
<g id="edge5" class="edge">
<title>2&#45;&gt;1</title>
<path fill="none" stroke="black" d="M298.39,-399.88C307.42,-380.03 316.44,-359.6 324.33,-341.06"/>
<polygon fill="black" stroke="black" points="324.43,-340.83 323.07,-333.75 329.09,-329.78 330.44,-336.86 324.43,-340.83"/>
</g>
<!-- 3&#45;&gt;1 -->
<g id="edge6" class="edge">
<title>3&#45;&gt;1</title>
<path fill="none" stroke="black" d="M423.33,-425.1C411.83,-398 398.25,-367.51 385.82,-340.91"/>
<polygon fill="black" stroke="black" points="385.69,-340.63 379.52,-336.91 380.58,-329.78 386.75,-333.5 385.69,-340.63"/>
</g>
<!-- 5 -->
<g id="node6" class="node">
<title>5</title>
<polygon fill="#f2f2f2" stroke="black" points="757.07,-12.9 757.07,-129.7 944.93,-129.7 944.93,-12.9 757.07,-12.9"/>
<text text-anchor="middle" x="851" y="-113.1" font-family="Times,serif" font-size="14.00">&lt;&lt;Interface&gt;&gt;</text>
<text text-anchor="middle" x="851" y="-96.3" font-family="Times,serif" font-size="14.00">IWETH</text>
<text text-anchor="middle" x="851" y="-79.5" font-family="Times,serif" font-size="14.00">src/UniswapV3Swap.sol</text>
<polyline fill="none" stroke="black" points="757.07,-71.3 944.93,-71.3 "/>
<text text-anchor="start" x="765.07" y="-54.7" font-family="Times,serif" font-size="14.00">External:</text>
<text text-anchor="start" x="765.07" y="-37.9" font-family="Times,serif" font-size="14.00"> &#160;&#160;&#160;&#160;deposit()</text>
<text text-anchor="start" x="765.07" y="-21.1" font-family="Times,serif" font-size="14.00"> &#160;&#160;&#160;&#160;withdraw(amount: uint256)</text>
</g>
<!-- 5&#45;&gt;4 -->
<g id="edge9" class="edge">
<title>5&#45;&gt;4</title>
<path fill="none" stroke="black" stroke-dasharray="5,2" d="M851,-129.78C851,-135.91 851,-142.31 851,-148.84"/>
<polygon fill="none" stroke="black" points="840.5,-148.95 851,-178.95 861.5,-148.95 840.5,-148.95"/>
</g>
</g>
</svg>
